<svg xmlns="http://www.w3.org/2000/svg" aria-hidden="true" style="position:absolute;width:0;height:0;overflow:hidden">
  <defs>
    <symbol id="icon-ic_round-shopping-cart" viewBox="0 0 32 32">
      <path fill="#dcdddf" d="M9.333 24c-1.467 0-2.653 1.2-2.653 2.667s1.187 2.667 2.653 2.667S12 28.134 12 26.667C12 25.2 10.8 24 9.333 24zm-8-20c0 .733.6 1.333 1.333 1.333h1.333l4.8 10.12-1.8 3.253c-.973 1.787.307 3.96 2.333 3.96h14.667c.733 0 1.333-.6 1.333-1.333S24.732 20 23.999 20H9.332l1.467-2.667h9.933c1 0 1.88-.547 2.333-1.373l4.773-8.653a1.329 1.329 0 0 0-1.16-1.973H6.945l-.893-1.907a1.327 1.327 0 0 0-1.2-.76H2.665c-.733 0-1.333.6-1.333 1.333zm21.333 20c-1.467 0-2.653 1.2-2.653 2.667s1.187 2.667 2.653 2.667c1.467 0 2.667-1.2 2.667-2.667S24.133 24 22.666 24z" style="fill:var(--color1, #dcdddf)"/>
    </symbol>
  </defs>
</svg>
