<svg aria-hidden="true" style="position: absolute; width: 0; height: 0; overflow: hidden;" version="1.1" xmlns="http://www.w3.org/2000/svg" xmlns:xlink="http://www.w3.org/1999/xlink">
<defs>
<symbol id="icon-elements" viewBox="0 0 43 32">
<path fill="#59b17a" style="fill: var(--color1, #59b17a)" opacity="0.08" d="M3.75 17.203c0.683-1.69 2.606-2.506 4.296-1.824l25.789 10.419-2.472 6.119-25.789-10.419c-1.69-0.683-2.506-2.606-1.824-4.296z"></path>
<path fill="#59b17a" style="fill: var(--color1, #59b17a)" opacity="0.08" d="M12.865 3.060c0.683-1.69 2.606-2.506 4.296-1.823l25.789 10.419-2.472 6.119-25.789-10.419c-1.69-0.683-2.506-2.606-1.824-4.296z"></path>
<path fill="#59b17a" style="fill: var(--color1, #59b17a)" opacity="0.08" d="M1.236 7.303c0.683-1.69 2.606-2.506 4.296-1.824l25.789 10.419-2.472 6.119-25.789-10.419c-1.69-0.683-2.506-2.606-1.823-4.296z"></path>
</symbol>
</defs>
</svg>
