<svg aria-hidden="true" style="position: absolute; width: 0; height: 0; overflow: hidden;" version="1.1" xmlns="http://www.w3.org/2000/svg" xmlns:xlink="http://www.w3.org/1999/xlink">
<defs>
<symbol id="icon-logout" viewBox="0 0 32 32">
<path fill="#59b17a" style="fill: var(--color1, #59b17a)" d="M28.138 16.552c0 6.704-5.434 12.138-12.138 12.138s-12.138-5.434-12.138-12.138c0-6.704 5.434-12.138 12.138-12.138s12.138 5.434 12.138 12.138z"></path>
<path fill="#fff" style="fill: var(--color2, #fff)" d="M13.793 12.874c-0.293 0-0.573 0.116-0.78 0.323s-0.323 0.488-0.323 0.78v5.149c0 0.293 0.116 0.573 0.323 0.78s0.488 0.323 0.78 0.323h2.207c0.293 0 0.573-0.116 0.78-0.323s0.323-0.488 0.323-0.78v-5.149c0-0.293-0.116-0.573-0.323-0.78s-0.488-0.323-0.78-0.323h-2.207zM17.579 14.82c0.069-0.069 0.163-0.108 0.26-0.108s0.191 0.039 0.26 0.108l1.471 1.471c0.069 0.069 0.108 0.163 0.108 0.26s-0.039 0.191-0.108 0.26l-1.471 1.471c-0.069 0.067-0.162 0.104-0.259 0.103s-0.189-0.040-0.257-0.108-0.107-0.16-0.108-0.257c-0.001-0.096 0.036-0.189 0.103-0.259l0.843-0.843h-3.158c-0.098 0-0.191-0.039-0.26-0.108s-0.108-0.162-0.108-0.26c0-0.098 0.039-0.191 0.108-0.26s0.163-0.108 0.26-0.108h3.158l-0.843-0.843c-0.069-0.069-0.108-0.163-0.108-0.26s0.039-0.191 0.108-0.26z"></path>
</symbol>
</defs>
</svg>
