<svg xmlns="http://www.w3.org/2000/svg" aria-hidden="true" style="position:absolute;width:0;height:0;overflow:hidden">
  <defs>
    <symbol id="icon-x" viewBox="0 0 32 32">
      <path stroke-linecap="round" stroke-linejoin="round" stroke-width="2.462" d="M24 8 8 24M8 8l16 16"/>
    </symbol>
    <symbol id="icon-calendar" viewBox="0 0 32 32">
      <path fill="none" stroke="#59b17a" stroke-linecap="round" stroke-linejoin="round" stroke-width="3" d="M25.333 5.332H6.666a2.667 2.667 0 0 0-2.667 2.667v18.667a2.667 2.667 0 0 0 2.667 2.667h18.667A2.667 2.667 0 0 0 28 26.666V7.999a2.667 2.667 0 0 0-2.667-2.667zm-4.001-2.664v5.333M10.668 2.668v5.333M4 13.332h24" style="stroke:var(--color1, #59b17a)"/>
    </symbol>
    <symbol id="icon-chevron-down" viewBox="0 0 32 32">
      <path stroke-linecap="round" stroke-linejoin="round" stroke-width="3" d="m8 20 8-8 8 8"/>
    </symbol>
    <symbol id="icon-chevron-down1" viewBox="0 0 32 32">
      <path stroke-linecap="round" stroke-linejoin="round" stroke-width="3" d="m8 12 8 8 8-8"/>
    </symbol>
    <symbol id="icon-btn-dell" viewBox="0 0 32 32">
      <path fill="none" stroke="#e85050" d="M16 .5C24.56.5 31.5 7.44 31.5 16S24.56 31.5 16 31.5C7.44 31.5.5 24.56.5 16S7.44.5 16 .5z" style="stroke:var(--color2, #e85050)"/>
      <path fill="none" stroke="#e85050" stroke-linecap="round" stroke-linejoin="round" stroke-width="1.3" d="M10 12h12m-1.333 0v9.333a1.33 1.33 0 0 1-1.334 1.333h-6.667a1.333 1.333 0 0 1-1.334-1.333V12m2.001 0v-1.333a1.335 1.335 0 0 1 1.334-1.334h2.667a1.335 1.335 0 0 1 1.334 1.334V12m-4.001 3.333v4m2.666-4v4" style="stroke:var(--color2, #e85050)"/>
    </symbol>
    <symbol id="icon-streamline" viewBox="0 0 32 32">
      <path stroke-linecap="round" stroke-linejoin="round" stroke-width="2.4" d="M20.572 17.143c5.681 0 10.286-2.047 10.286-4.571s-4.605-4.571-10.286-4.571c-5.681 0-10.286 2.047-10.286 4.571s4.605 4.571 10.286 4.571z"/>
      <path stroke-linecap="round" stroke-linejoin="round" stroke-width="2.4" d="M10.286 12.572v13.714c0 2.514 4.571 4.571 10.286 4.571s10.286-2.057 10.286-4.571V12.572"/>
      <path stroke-linecap="round" stroke-linejoin="round" stroke-width="2.4" d="M30.857 19.429c0 2.514-4.572 4.571-10.286 4.571s-10.286-2.057-10.286-4.571m10.058-16a15.483 15.483 0 0 0-8.914-2.286C5.738 1.143 1.143 3.2 1.143 5.714c0 1.349 1.326 2.56 3.429 3.429"/>
      <path stroke-linecap="round" stroke-linejoin="round" stroke-width="2.4" d="M4.572 22.857c-2.103-.869-3.429-2.08-3.429-3.429V5.714"/>
      <path stroke-linecap="round" stroke-linejoin="round" stroke-width="2.4" d="M4.572 16c-2.103-.869-3.429-2.08-3.429-3.428"/>
    </symbol>
    <symbol id="icon-edit" viewBox="0 0 32 32">
      <path  stroke-linejoin="round" stroke-width="2.971" d="M23.886 3.177c.457-.183.937-.297 1.44-.297s.983.114 1.44.297c.457.183.869.457 1.234.823.343.343.617.754.8 1.211.206.457.297.96.297 1.44 0 .503-.091.983-.297 1.44a3.71 3.71 0 0 1-.8 1.234L9.989 27.314l-7.337 2.011 2.011-7.337L22.652 3.999c.366-.366.777-.64 1.234-.823z"/>
    </symbol>
    <symbol id="icon-btn-edit" viewBox="0 0 32 32">
      <path fill="none" stroke="#59b17a" stroke-linejoin="round" stroke-width="1.3" d="M19.94 9.59c.23-.1.48-.15.72-.15.25 0 .5.05.72.15.23.09.44.23.62.41.17.17.31.38.41.61.09.23.14.47.14.72s-.05.49-.14.72c-.1.23-.24.44-.41.61l-9 9-3.67 1 1-3.66 9-9c.17-.18.38-.32.61-.41z" style="stroke:var(--color1, #59b17a)"/>
      <path fill="none" stroke="#59b17a" d="M16 .5C24.56.5 31.5 7.44 31.5 16S24.56 31.5 16 31.5C7.44 31.5.5 24.56.5 16S7.44.5 16 .5z" style="stroke:var(--color1, #59b17a)"/>
    </symbol>
    <symbol id="icon-filter" viewBox="0 0 32 32">
      <path fill="none" stroke="#fff" stroke-linejoin="round" stroke-width="3.429" d="m2.651 4 10.674 12.594v8.731l5.326 2.674V16.593L29.325 3.999H2.651z" style="stroke:var(--color3, #fff)"/>
    </symbol>
    <symbol id="icon-users" viewBox="0 0 32 32">
      <path stroke-linejoin="round" stroke-width="2.4" d="M28 26.656c0-2.32-2.24-4.288-5.344-5.024M20 26.656c0-2.944-3.584-5.328-8-5.328-4.432 0-8 2.384-8 5.328m16-9.328c1.408 0 2.768-.56 3.76-1.568A5.278 5.278 0 0 0 25.328 12c0-1.424-.56-2.784-1.568-3.776A5.278 5.278 0 0 0 20 6.656M8.224 15.76A5.278 5.278 0 0 1 6.656 12c0-1.424.56-2.784 1.568-3.776A5.287 5.287 0 0 1 12 6.656c1.408 0 2.768.56 3.76 1.568A5.287 5.287 0 0 1 17.328 12c0 1.408-.56 2.768-1.568 3.76A5.278 5.278 0 0 1 12 17.328a5.287 5.287 0 0 1-3.776-1.568z"/>
    </symbol>
    <symbol id="icon-logout" viewBox="0 0 32 32">
      <path fill="#59b17a" d="M28.138 16.552c0 6.704-5.434 12.138-12.138 12.138S3.862 23.256 3.862 16.552 9.296 4.414 16 4.414s12.138 5.434 12.138 12.138z" style="fill:var(--color1, #59b17a)"/>
      <path fill="#fff" d="M13.793 12.872c-.298 0-.574.116-.783.32-.204.21-.32.491-.32.783v5.148c0 .292.116.574.32.783.21.204.486.32.783.32H16c.292 0 .568-.116.778-.32.204-.21.326-.491.326-.783v-5.148c0-.292-.121-.574-.326-.783a1.114 1.114 0 0 0-.778-.32h-2.207zm3.785 1.947a.36.36 0 0 1 .518 0l1.473 1.468a.393.393 0 0 1 .105.265.386.386 0 0 1-.105.259l-1.473 1.468a.378.378 0 0 1-.259.105.35.35 0 0 1-.254-.11.345.345 0 0 1-.11-.254c0-.099.039-.188.105-.259l.844-.844h-3.161a.377.377 0 0 1-.259-.105.39.39 0 0 1-.105-.259c0-.099.039-.193.105-.265a.378.378 0 0 1 .259-.105h3.161l-.844-.844a.358.358 0 0 1 0-.518z" style="fill:var(--color3, #fff)"/>
    </symbol>
    <symbol id="icon-dashboard" viewBox="0 0 32 32">
      <path d="M5.333 17.333h8c.733 0 1.333-.6 1.333-1.333V5.333c0-.733-.6-1.333-1.333-1.333h-8C4.6 4 4 4.6 4 5.333V16c0 .733.6 1.333 1.333 1.333zm0 10.667h8c.733 0 1.333-.6 1.333-1.333v-5.333c0-.733-.6-1.333-1.333-1.333h-8c-.733 0-1.333.6-1.333 1.333v5.333C4 27.4 4.6 28 5.333 28zm13.334 0h8C27.4 28 28 27.4 28 26.667V16c0-.733-.6-1.333-1.333-1.333h-8c-.733 0-1.333.6-1.333 1.333v10.667c0 .733.6 1.333 1.333 1.333zM17.333 5.333v5.333c0 .733.6 1.333 1.333 1.333h8c.733 0 1.333-.6 1.333-1.333V5.333c0-.733-.6-1.333-1.333-1.333h-8c-.733 0-1.333.6-1.333 1.333z" />
    </symbol>
    <symbol id="icon-customers" viewBox="0 0 32 32">
      <path  d="M21.334 22.667v2.667H2.667v-2.667s0-5.333 9.333-5.333 9.333 5.333 9.333 5.333zM16.667 10a4.66 4.66 0 0 0-5.576-4.578 4.668 4.668 0 0 0-3.4 6.362c.353.853.951 1.582 1.719 2.094s1.67.786 2.593.786a4.667 4.667 0 0 0 4.667-4.667zm4.587 7.333a7.096 7.096 0 0 1 2.747 5.333v2.667h5.333v-2.667s0-4.84-8.08-5.333zM20 5.333a4.515 4.515 0 0 0-2.573.787 6.666 6.666 0 0 1 0 7.76 4.525 4.525 0 0 0 2.573.787 4.667 4.667 0 0 0 0-9.334z" />
    </symbol>
    <symbol id="icon-suppliers" viewBox="0 0 32 32">
      <path d="M21.333 18.667h-4v4h-2.667v-4h-4V16h4v-4h2.667v4h4zm6.667-12h-3.533L26 2.467l-3.133-1.133-1.947 5.333H4v2.667l2.667 8-2.667 8v2.667h24v-2.667l-2.667-8 2.667-8V6.667z"/>
    </symbol>
    <symbol id="icon-products" viewBox="0 0 32 32">
      <path d="M20 12.841V5.333h1.333a1.335 1.335 0 0 0 .943-2.277 1.334 1.334 0 0 0-.943-.391H10.666a1.335 1.335 0 0 0-.943 2.277c.251.25.589.391.943.391h1.333v7.508L5.03 23.082c-1.807 2.656.096 6.251 3.307 6.251h15.324c3.213 0 5.115-3.595 3.307-6.251L20 12.841z" />
    </symbol>
     <symbol id="icon-orders" viewBox="0 0 32 32">
      <path d="M9.333 24c-1.467 0-2.653 1.2-2.653 2.667s1.187 2.667 2.653 2.667S12 28.134 12 26.667C12 25.2 10.8 24 9.333 24zm-8-20c0 .733.6 1.333 1.333 1.333h1.333l4.8 10.12-1.8 3.253c-.973 1.787.307 3.96 2.333 3.96h14.667c.733 0 1.333-.6 1.333-1.333S24.732 20 23.999 20H9.332l1.467-2.667h9.933c1 0 1.88-.547 2.333-1.373l4.773-8.653a1.329 1.329 0 0 0-1.16-1.973H6.945l-.893-1.907a1.327 1.327 0 0 0-1.2-.76H2.665c-.733 0-1.333.6-1.333 1.333zm21.333 20c-1.467 0-2.653 1.2-2.653 2.667s1.187 2.667 2.653 2.667c1.467 0 2.667-1.2 2.667-2.667S24.133 24 22.666 24z" />
    </symbol>
    <symbol id="icon-elements" viewBox="0 0 43 32">
      <path fill="#59b17a" d="M3.75 17.203a3.3 3.3 0 0 1 4.296-1.824l25.789 10.419-2.472 6.119L5.574 21.498a3.3 3.3 0 0 1-1.824-4.296zM12.865 3.06a3.3 3.3 0 0 1 4.296-1.823L42.95 11.656l-2.472 6.119L14.689 7.356a3.3 3.3 0 0 1-1.824-4.296zM1.236 7.303a3.3 3.3 0 0 1 4.296-1.824l25.789 10.419-2.472 6.119L3.06 11.598a3.3 3.3 0 0 1-1.823-4.296z" opacity=".08" style="fill:var(--color1, #59b17a)"/>
    </symbol>
    <symbol id="icon-eye" viewBox="0 0 32 32">
      <path stroke-linecap="round" stroke-linejoin="round" stroke-width="2.667" d="M1.333 16S6.666 5.333 16 5.333 30.667 16 30.667 16 25.334 26.667 16 26.667 1.333 16 1.333 16z"/>
      <path stroke-linecap="round" stroke-linejoin="round" stroke-width="2.667" d="M16 20a4 4 0 1 0 0-8 4 4 0 0 0 0 8z"/>
    </symbol>
    <symbol id="icon-eye-off" viewBox="0 0 32 32">
      <path stroke-linecap="round" stroke-linejoin="round" stroke-width="2.667" d="M23.92 23.92A13.43 13.43 0 0 1 16 26.667C6.667 26.667 1.333 16 1.333 16A24.605 24.605 0 0 1 8.08 8.08m5.12-2.427a12.161 12.161 0 0 1 2.8-.32C25.333 5.333 30.667 16 30.667 16a24.646 24.646 0 0 1-2.88 4.253m-8.96-1.426a4.01 4.01 0 0 1-2.855 1.273 3.987 3.987 0 0 1-3.779-2.502 3.995 3.995 0 0 1 .983-4.424M1.333 1.333l29.333 29.333"/>
    </symbol>



    

  </defs>
</svg>
